<?xml version="1.0" encoding="utf-8"?>
<!-- Generator: Adobe Illustrator 24.1.0, SVG Export Plug-In . SVG Version: 6.00 Build 0)  -->
<svg version="1.1" id="Layer_1" xmlns="http://www.w3.org/2000/svg" xmlns:xlink="http://www.w3.org/1999/xlink" x="0px" y="0px"
	 viewBox="0 0 60 60" style="enable-background:new 0 0 60 60;" xml:space="preserve">
<style type="text/css">
	.st0{fill:#007BFF;}
</style>
<g>
	<path class="st0" d="M30,56.2C20,56.2,11.8,48,11.8,38c0-10,8.2-18.2,18.2-18.2c6.9,0,13.4,4,16.4,10.3c0.1,0.3,0,0.6-0.3,0.8
		c-0.3,0.1-0.6,0-0.8-0.3c-2.8-5.9-8.9-9.6-15.4-9.6C20.6,20.9,13,28.6,13,38C13,47.4,20.6,55,30,55c9.4,0,17.1-7.7,17.1-17.1
		c0-0.3,0.3-0.6,0.6-0.6c0.3,0,0.6,0.3,0.6,0.6C48.2,48,40.1,56.2,30,56.2z"/>
	<path class="st0" d="M30,59.9C17.9,59.9,8.1,50.1,8.1,38c0-12.1,9.8-21.9,21.9-21.9c12.1,0,21.9,9.8,21.9,21.9
		C51.9,50.1,42.1,59.9,30,59.9z M30,17.2C18.6,17.2,9.3,26.5,9.3,38S18.6,58.8,30,58.8S50.8,49.4,50.8,38S41.5,17.2,30,17.2z"/>
	<path class="st0" d="M30,28.1c-0.3,0-0.6-0.3-0.6-0.6v-4.1c0-0.3,0.3-0.6,0.6-0.6c0.3,0,0.6,0.3,0.6,0.6v4.1
		C30.6,27.8,30.3,28.1,30,28.1z"/>
	<path class="st0" d="M38.4,30.2c-0.1,0-0.3-0.1-0.4-0.2c-0.2-0.2-0.2-0.6,0-0.8l2-2c0.2-0.2,0.6-0.2,0.8,0c0.2,0.2,0.2,0.6,0,0.8
		l-2,2C38.7,30.1,38.5,30.2,38.4,30.2z"/>
	<path class="st0" d="M44.6,38.6h-4.1c-0.3,0-0.6-0.3-0.6-0.6c0-0.3,0.3-0.6,0.6-0.6h4.1c0.3,0,0.6,0.3,0.6,0.6
		C45.2,38.3,44.9,38.6,44.6,38.6z"/>
	<path class="st0" d="M40.3,48.9c-0.1,0-0.3-0.1-0.4-0.2l-2-2c-0.2-0.2-0.2-0.6,0-0.8s0.6-0.2,0.8,0l2,2c0.2,0.2,0.2,0.6,0,0.8
		C40.6,48.8,40.5,48.9,40.3,48.9z"/>
	<path class="st0" d="M30,53.2c-0.3,0-0.6-0.3-0.6-0.6v-4.1c0-0.3,0.3-0.6,0.6-0.6c0.3,0,0.6,0.3,0.6,0.6v4.1
		C30.6,52.9,30.3,53.2,30,53.2z"/>
	<path class="st0" d="M19.7,48.9c-0.1,0-0.3-0.1-0.4-0.2c-0.2-0.2-0.2-0.6,0-0.8l2-2c0.2-0.2,0.6-0.2,0.8,0c0.2,0.2,0.2,0.6,0,0.8
		l-2,2C20,48.8,19.8,48.9,19.7,48.9z"/>
	<path class="st0" d="M19.5,38.6h-4.1c-0.3,0-0.6-0.3-0.6-0.6c0-0.3,0.3-0.6,0.6-0.6h4.1c0.3,0,0.6,0.3,0.6,0.6
		C20.1,38.3,19.8,38.6,19.5,38.6z"/>
	<path class="st0" d="M21.6,30.2c-0.1,0-0.3-0.1-0.4-0.2l-2-2c-0.2-0.2-0.2-0.6,0-0.8c0.2-0.2,0.6-0.2,0.8,0l2,2
		c0.2,0.2,0.2,0.6,0,0.8C21.9,30.1,21.8,30.2,21.6,30.2z"/>
	<path class="st0" d="M34.5,38.6H30c-0.3,0-0.6-0.3-0.6-0.6v-5.6c0-0.3,0.3-0.6,0.6-0.6c0.3,0,0.6,0.3,0.6,0.6v5h3.9
		c0.3,0,0.6,0.3,0.6,0.6C35.1,38.3,34.9,38.6,34.5,38.6z"/>
</g>
<g id="XMLID_5865_">
	<path id="XMLID_5866_" class="st0" d="M13.3,14.4c-0.8,0.2-1.5,0.9-1.5,1.8c0,0.4,0.1,0.8,0.4,1.1l-0.8,4.6c0,0.2,0,0.4,0.2,0.5
		c0.1,0.2,0.3,0.2,0.5,0.2h3.2c0.2,0,0.4-0.1,0.5-0.2c0.1-0.1,0.2-0.3,0.2-0.5l-0.7-4.8c0.2-0.3,0.3-0.6,0.3-0.9
		c0-0.7-0.4-1.3-0.9-1.6v-2.5l4.2,1.8v10.4c0,1.3,1,2.3,2.3,2.3h19.1c1.3,0,2.3-1,2.3-2.3v-11l10-4.3c0.3-0.1,0.4-0.4,0.4-0.6
		c0-0.3-0.2-0.5-0.5-0.6L29.8,0c-0.1-0.1-0.3,0-0.5,0C21.6,3,8.9,7.7,7.7,7.7C7.4,7.7,7.1,8,7,8.3C6.9,8.6,7.1,8.9,7.4,9l5.9,2.6
		V14.4z M12.9,21.4l0.7-4.1c0-0.2,0-0.5-0.2-0.6c-0.1-0.1-0.2-0.2-0.2-0.4c0-0.3,0.2-0.5,0.5-0.5c0.3,0,0.5,0.2,0.5,0.5
		c0,0.2-0.1,0.3-0.1,0.3c-0.1,0.1-0.2,0.3-0.2,0.5l0.6,4.3H12.9z M41.2,24.4c0,0.5-0.4,1-1,1H21.1c-0.5,0-1-0.4-1-1v-9.8l9.5,4.1
		c0.1,0,0.2,0.1,0.3,0.1c0.1,0,0.2,0,0.3-0.1l11-4.8V24.4z M9.7,8.6c4.9-1.5,16.7-6,19.9-7.2l20.8,7.1l-20.4,8.9l-13.5-5.8L27.9,10
		c0.5,0.3,1.2,0.5,2.1,0.5c1.6,0,2.8-0.6,2.8-1.5c0-0.8-1.2-1.5-2.8-1.5c-1.4,0-2.4,0.5-2.7,1.1l-13.2,1.7L9.7,8.6z M27.9,9
		c0-0.3,0.8-0.8,2.1-0.8S32,8.7,32,9c0,0.3-0.8,0.8-2.1,0.8S27.9,9.3,27.9,9z"/>
</g>
</svg>
