<?xml version="1.0" encoding="utf-8"?>
<!-- Generator: Adobe Illustrator 24.1.0, SVG Export Plug-In . SVG Version: 6.00 Build 0)  -->
<svg version="1.1" id="Layer_1" xmlns="http://www.w3.org/2000/svg" xmlns:xlink="http://www.w3.org/1999/xlink" x="0px" y="0px"
	 viewBox="0 0 36 36" style="enable-background:new 0 0 36 36;" xml:space="preserve">
<style type="text/css">
	.st0{fill:#010101;}
</style>
<g>
	<path fill="currentColor" d="M1.4,22.1c-0.1,0-0.2,0-0.3-0.1c-0.2-0.1-0.3-0.4-0.3-0.6l0.5-4.8c0-0.4,0-0.9-0.2-1.3
		c-0.4-0.9-0.7-1.9-0.7-2.8C0.4,7.8,5.7,4,12.1,4c6.5,0,11.7,3.8,11.7,8.5S18.6,21,12.1,21c-2,0-4-0.4-5.8-1.1
		c-0.8-0.3-1.7-0.2-2.4,0.3L1.8,22C1.7,22.1,1.5,22.1,1.4,22.1z M12.1,5.2c-5.8,0-10.5,3.3-10.5,7.3c0,0.8,0.2,1.6,0.6,2.3
		c0.3,0.6,0.4,1.3,0.4,2l-0.4,3.4l1.1-0.8c1-0.8,2.4-1,3.6-0.5c1.6,0.7,3.4,1,5.3,1c5.8,0,10.5-3.3,10.5-7.3
		C22.6,8.5,17.9,5.2,12.1,5.2z"/>
	<circle fill="currentColor" cx="6.9" cy="12.6" r="1.4"/>
	<circle fill="currentColor" cx="12" cy="12.6" r="1.4"/>
	<circle fill="currentColor" cx="17.2" cy="12.6" r="1.4"/>
	<circle fill="currentColor" cx="29.1" cy="23.3" r="1.4"/>
	<circle fill="currentColor" cx="23.9" cy="23.3" r="1.4"/>
	<circle fill="currentColor" cx="18.8" cy="23.3" r="1.4"/>
	<path fill="currentColor" d="M34.6,32.8c-0.1,0-0.3,0-0.4-0.1L32,30.9c-0.7-0.5-1.6-0.7-2.4-0.3c-1.8,0.7-3.7,1.1-5.8,1.1
		c-6.5,0-11.7-3.8-11.7-8.5c0-1,0.3-2.1,0.8-3.1c0.1-0.2,0.3-0.3,0.5-0.3c3.9-0.3,7.2-2.2,8.5-4.7c0.1-0.2,0.3-0.3,0.5-0.3
		c0.5,0,1-0.1,1.4-0.1c6.5,0,11.7,3.8,11.7,8.5c0,1-0.2,1.9-0.7,2.8c-0.2,0.4-0.3,0.9-0.2,1.3l0.5,4.8c0,0.2-0.1,0.5-0.3,0.6
		C34.8,32.8,34.7,32.8,34.6,32.8z M30.5,29.2c0.8,0,1.6,0.3,2.2,0.8l1.1,0.8l-0.4-3.4c-0.1-0.7,0.1-1.3,0.4-2
		c0.4-0.8,0.6-1.5,0.6-2.3c0-4-4.7-7.3-10.5-7.3c-0.3,0-0.6,0-1,0c-1.6,2.7-5,4.6-9,5.1c-0.3,0.7-0.5,1.5-0.5,2.2
		c0,4,4.7,7.3,10.5,7.3c1.9,0,3.7-0.4,5.3-1C29.6,29.3,30.1,29.2,30.5,29.2z"/>
	<path fill="currentColor" d="M35,16.5c-0.1,0-0.3,0-0.4-0.1c-0.3-0.2-0.6-0.5-0.9-0.7c-0.3-0.2-0.4-0.6-0.2-0.8c0.2-0.3,0.6-0.4,0.8-0.2
		c0.4,0.2,0.7,0.5,1,0.7c0.3,0.2,0.3,0.6,0.1,0.9C35.3,16.4,35.1,16.5,35,16.5z"/>
	<path fill="currentColor" d="M31.6,14.5c-0.1,0-0.2,0-0.2-0.1c-0.8-0.3-1.6-0.6-2.4-0.8c-0.3-0.1-0.5-0.4-0.4-0.7c0.1-0.3,0.4-0.5,0.7-0.4
		c0.9,0.2,1.8,0.5,2.6,0.9c0.3,0.1,0.4,0.5,0.3,0.8C32.1,14.4,31.9,14.5,31.6,14.5z"/>
	<path fill="currentColor" d="M26.6,13.1C26.5,13.1,26.5,13.1,26.6,13.1c-0.5-0.1-0.9-0.1-1.3-0.1c-0.3,0-0.6-0.3-0.6-0.6
		c0-0.3,0.3-0.6,0.6-0.6c0.4,0,0.8,0.1,1.2,0.1c0.3,0,0.6,0.3,0.5,0.7C27.1,12.9,26.9,13.1,26.6,13.1z"/>
</g>
</svg>
