<?xml version="1.0" encoding="utf-8"?>
<!-- Generator: Adobe Illustrator 24.1.0, SVG Export Plug-In . SVG Version: 6.00 Build 0)  -->
<svg version="1.1" id="Layer_1" xmlns="http://www.w3.org/2000/svg" xmlns:xlink="http://www.w3.org/1999/xlink" x="0px" y="0px"
	 viewBox="0 0 48 48" style="enable-background:new 0 0 48 48;" xml:space="preserve">
<style type="text/css">
	.st0{fill:#007BFF;}
</style>
<g>
	<g>
		<path class="st0" d="M24.6,35.6c-6.5,0-11.7-5.3-11.7-11.7s5.3-11.7,11.7-11.7s11.7,5.3,11.7,11.7C36.3,30.4,31.1,35.6,24.6,35.6z
			 M24.6,14.5c-5.2,0-9.4,4.2-9.4,9.4c0,5.2,4.2,9.4,9.4,9.4s9.4-4.2,9.4-9.4C34,18.7,29.8,14.5,24.6,14.5z"/>
	</g>
	<g>
		<path class="st0" d="M23.6,7.7c-0.6,0-1.2-0.5-1.2-1.2V1.6c0-0.6,0.5-1.2,1.2-1.2c0.6,0,1.2,0.5,1.2,1.2v4.9
			C24.8,7.1,24.2,7.7,23.6,7.7z"/>
	</g>
	<g>
		<path class="st0" d="M36.3,13.6c-0.3,0-0.6-0.1-0.8-0.3c-0.5-0.5-0.5-1.2,0-1.7l4.2-4.2c0.5-0.5,1.2-0.5,1.7,0
			c0.5,0.5,0.5,1.2,0,1.7l-4.2,4.2C36.9,13.5,36.6,13.6,36.3,13.6z"/>
	</g>
	<g>
		<path class="st0" d="M11,13.6c-0.3,0-0.6-0.1-0.8-0.3L6,9.1C5.5,8.6,5.5,7.9,6,7.4C6.4,7,7.2,7,7.6,7.4l4.2,4.2
			c0.5,0.5,0.5,1.2,0,1.7C11.6,13.5,11.3,13.6,11,13.6z"/>
	</g>
	<g>
		<path class="st0" d="M23.6,47.2c-0.6,0-1.2-0.5-1.2-1.2v-4.9c0-0.6,0.5-1.2,1.2-1.2c0.6,0,1.2,0.5,1.2,1.2V46
			C24.8,46.6,24.3,47.2,23.6,47.2z"/>
	</g>
	<g>
		<path class="st0" d="M7.7,40.5c-0.3,0-0.6-0.1-0.8-0.3c-0.5-0.5-0.5-1.2,0-1.7l4.2-4.2c0.5-0.5,1.2-0.5,1.7,0
			c0.5,0.5,0.5,1.2,0,1.7l-4.2,4.2C8.3,40.4,8,40.5,7.7,40.5z"/>
	</g>
	<g>
		<path class="st0" d="M41.4,40.5c-0.3,0-0.6-0.1-0.8-0.3L36.4,36c-0.5-0.5-0.5-1.2,0-1.7s1.2-0.5,1.7,0l4.2,4.2
			c0.5,0.5,0.5,1.2,0,1.7C42,40.4,41.7,40.5,41.4,40.5z"/>
	</g>
	<g>
		<path class="st0" d="M6.8,25.1H1.5c-0.6,0-1.2-0.5-1.2-1.2c0-0.6,0.5-1.2,1.2-1.2h5.3c0.6,0,1.2,0.5,1.2,1.2
			C8,24.5,7.5,25.1,6.8,25.1z"/>
	</g>
	<g>
		<path class="st0" d="M46.8,25.1h-6.3c-0.6,0-1.2-0.5-1.2-1.2c0-0.6,0.5-1.2,1.2-1.2h6.3c0.6,0,1.2,0.5,1.2,1.2
			S47.4,25.1,46.8,25.1z"/>
	</g>
</g>
</svg>
