<?xml version="1.0" encoding="utf-8"?>
<!-- Generator: Adobe Illustrator 24.1.0, SVG Export Plug-In . SVG Version: 6.00 Build 0)  -->
<svg version="1.1" id="Layer_1" xmlns="http://www.w3.org/2000/svg" xmlns:xlink="http://www.w3.org/1999/xlink" x="0px" y="0px"
	 viewBox="0 0 48 48" style="enable-background:new 0 0 48 48;" xml:space="preserve">
<style type="text/css">
	.st0{fill:#007BFF;}
</style>
<g>
	<path class="st0" d="M13,30c0.6,0,1.2-0.5,1.2-1.2c0-5.2,4.2-9.4,9.4-9.4s9.4,4.2,9.4,9.4c0,0.6,0.5,1.2,1.2,1.2s1.2-0.5,1.2-1.2
		c0-6.5-5.3-11.7-11.7-11.7s-11.7,5.3-11.7,11.7C11.9,29.5,12.4,30,13,30z"/>
	<path class="st0" d="M23.6,15c0.6,0,1.2-0.5,1.2-1.2V7.4c0-0.6-0.5-1.2-1.2-1.2c-0.6,0-1.2,0.5-1.2,1.2v6.5
		C22.4,14.5,23,15,23.6,15z"/>
	<path class="st0" d="M12.4,19.2c0.5-0.5,0.5-1.2,0-1.7L7.8,13c-0.5-0.5-1.2-0.5-1.7,0c-0.5,0.5-0.5,1.2,0,1.7l4.6,4.6
		c0.2,0.2,0.5,0.3,0.8,0.3C11.9,19.6,12.2,19.5,12.4,19.2z"/>
	<path class="st0" d="M40.7,13c-0.5-0.5-1.2-0.5-1.7,0l-3.9,3.9c-0.5,0.5-0.5,1.2,0,1.7c0.2,0.2,0.5,0.3,0.8,0.3
		c0.3,0,0.6-0.1,0.8-0.3l3.9-3.9C41.2,14.2,41.2,13.4,40.7,13z"/>
	<path class="st0" d="M34.9,31.8H12.3c-0.6,0-1.2,0.5-1.2,1.2c0,0.6,0.5,1.2,1.2,1.2h22.6c0.6,0,1.2-0.5,1.2-1.2
		C36.1,32.4,35.6,31.8,34.9,31.8z"/>
	<path class="st0" d="M32.1,39.1h-17c-0.6,0-1.2,0.5-1.2,1.2c0,0.6,0.5,1.2,1.2,1.2h17c0.6,0,1.2-0.5,1.2-1.2
		C33.3,39.6,32.8,39.1,32.1,39.1z"/>
</g>
</svg>
